<?xml version="1.0" standalone="no"?>
<!DOCTYPE svg PUBLIC "-//W3C//DTD SVG 20010904//EN"
 "http://www.w3.org/TR/2001/REC-SVG-20010904/DTD/svg10.dtd">
<svg version="1.0" xmlns="http://www.w3.org/2000/svg"
 width="512.000000pt" height="512.000000pt" viewBox="0 0 512.000000 512.000000"
 preserveAspectRatio="xMidYMid meet">

<g transform="translate(0.000000,512.000000) scale(0.100000,-0.100000)"
fill="#000000" stroke="none">
<path d="M2285 4675 c-811 -106 -1495 -672 -1749 -1446 -75 -229 -106 -422
-106 -669 0 -247 31 -440 106 -669 105 -319 274 -592 518 -837 183 -182 348
-300 571 -410 588 -287 1288 -287 1870 0 967 478 1426 1577 1084 2601 -258
775 -967 1345 -1781 1434 -128 14 -388 12 -513 -4z"/>
</g>
</svg>
